Jump_normalized_precision_landing07_filtered_grf
version=1
nRows=15
nColumns=37
inDegrees=yes
endheader
time		1_ground_force_vx		1_ground_force_vy		1_ground_force_vz		1_ground_force_px		1_ground_force_py		1_ground_force_pz		1_ground_torque_x		1_ground_torque_y		1_ground_torque_z		2_ground_force_vx		2_ground_force_vy		2_ground_force_vz		2_ground_force_px		2_ground_force_py		2_ground_force_pz		2_ground_torque_x		2_ground_torque_y		2_ground_torque_z		3_ground_force_vx		3_ground_force_vy		3_ground_force_vz		3_ground_force_px		3_ground_force_py		3_ground_force_pz		3_ground_torque_x		3_ground_torque_y		3_ground_torque_z		4_ground_force_vx		4_ground_force_vy		4_ground_force_vz		4_ground_force_px		4_ground_force_py		4_ground_force_pz		4_ground_torque_x		4_ground_torque_y		4_ground_torque_z		
0.278667		-0.000000		0.000000		0.000000		0.096796		0.000000		0.248473		0.000000		0.000000		-0.000000		-0.000000		-0.000000		-0.000000		-0.189952		0.000000		0.240771		-0.000000		0.000000		-0.000000		-47.842466		561.601403		30.963172		0.381308		1.273833		1.888154		3.006356		-35.290275		-1.945682		78.422383		512.063643		16.124267		-0.352281		1.267071		1.875797		4.256035		27.790033		0.875072		
0.281596		-0.000000		0.000000		0.000000		0.096796		0.000000		0.248473		0.000000		0.000000		-0.000000		0.000000		0.000000		-0.000000		-0.189952		0.000000		0.240771		0.000000		-0.000000		0.000000		-47.145064		557.289223		27.772573		0.381315		1.273851		1.888281		2.966919		-35.071162		-1.747774		77.605718		508.583192		13.677887		-0.352249		1.267096		1.875847		4.224899		27.687560		0.744630		
0.284525		-0.000000		0.000000		0.000000		0.096796		0.000000		0.248473		0.000000		0.000000		-0.000000		0.000000		0.000000		0.000000		-0.189952		0.000000		0.240771		0.000000		-0.000000		0.000000		-46.400366		553.121286		24.624494		0.381319		1.273864		1.888397		2.925361		-34.872132		-1.552478		76.721332		504.946121		10.911297		-0.352209		1.267129		1.875897		4.189676		27.574608		0.595855		
0.287455		0.000000		0.000000		0.000000		0.096796		0.000000		0.248473		0.000000		0.000000		-0.000000		0.000000		0.000000		0.000000		-0.189952		0.000000		0.240771		0.000000		-0.000000		0.000000		-45.634799		549.144812		21.611691		0.381319		1.273875		1.888496		2.883353		-34.696736		-1.365495		75.781089		501.170613		7.814968		-0.352156		1.267168		1.875947		4.151263		27.453965		0.428100		
0.290384		0.000000		-0.000000		-0.000000		0.096796		0.000000		0.248473		-0.000000		-0.000000		0.000000		0.000000		0.000000		0.000000		-0.189952		0.000000		0.240771		0.000000		-0.000000		0.000000		-44.866725		545.359562		18.745426		0.381318		1.273881		1.888575		2.841737		-34.541611		-1.187283		74.798627		497.269680		4.425941		-0.352087		1.267214		1.875996		4.110798		27.329051		0.243239		
0.293313		0.000000		-0.000000		-0.000000		0.096796		0.000000		0.248473		-0.000000		-0.000000		0.000000		0.000000		0.000000		0.000000		-0.189952		0.000000		0.240771		0.000000		-0.000000		0.000000		-44.103066		541.713788		15.958583		0.381319		1.273885		1.888639		2.800494		-34.398199		-1.013348		73.785190		493.243323		0.866425		-0.352007		1.267259		1.876040		4.069256		27.202392		0.047778		
0.296242		0.000000		-0.000000		-0.000000		0.096796		0.000000		0.248473		-0.000000		-0.000000		0.000000		-0.000000		-0.000000		0.000000		-0.189952		0.000000		0.240771		0.000000		-0.000000		-0.000000		-43.337811		538.119262		13.138136		0.381322		1.273887		1.888692		2.758873		-34.256536		-0.836367		72.750495		489.084040		-2.726619		-0.351924		1.267301		1.876079		4.027330		27.074776		-0.150946		
0.299172		0.000000		-0.000000		-0.000000		0.096796		0.000000		0.248473		-0.000000		-0.000000		0.000000		-0.000000		-0.000000		-0.000000		-0.189952		0.000000		0.240771		-0.000000		0.000000		-0.000000		-42.557549		534.477412		10.168892		0.381328		1.273890		1.888739		2.715920		-34.109059		-0.648951		71.707806		484.788090		-6.220491		-0.351848		1.267337		1.876113		3.985619		26.945194		-0.345749		
0.302101		0.000000		-0.000000		-0.000000		0.096796		0.000000		0.248473		-0.000000		-0.000000		0.000000		-0.000000		-0.000000		-0.000000		-0.189952		0.000000		0.240771		-0.000000		0.000000		-0.000000		-41.750201		530.709290		6.973211		0.381334		1.273893		1.888782		2.671004		-33.952571		-0.446114		70.677413		480.366377		-9.512319		-0.351789		1.267362		1.876142		3.944842		26.811529		-0.530931		
0.305030		-0.000000		0.000000		0.000000		0.096796		0.000000		0.248473		0.000000		0.000000		-0.000000		-0.000000		-0.000000		-0.000000		-0.189952		0.000000		0.240771		-0.000000		0.000000		-0.000000		-40.912211		526.780045		3.529172		0.381337		1.273900		1.888825		2.624118		-33.787791		-0.226361		69.683864		475.850562		-12.547425		-0.351754		1.267379		1.876168		3.905788		26.671477		-0.703285		
0.307960		-0.000000		0.000000		0.000000		0.096796		0.000000		0.248473		0.000000		0.000000		-0.000000		-0.000000		-0.000000		-0.000000		-0.189952		0.000000		0.240771		-0.000000		0.000000		-0.000000		-40.050067		522.706717		-0.135844		0.381333		1.273914		1.888872		2.575780		-33.617374		0.008738		68.747558		471.291967		-15.315251		-0.351747		1.267389		1.876194		3.868961		26.523271		-0.861910		
0.310889		-0.000000		0.000000		0.000000		0.096796		0.000000		0.248473		0.000000		0.000000		-0.000000		-0.000000		-0.000000		-0.000000		-0.189952		0.000000		0.240771		-0.000000		0.000000		-0.000000		-39.176113		518.544397		-3.957187		0.381321		1.273938		1.888926		2.526685		-33.443823		0.255225		67.872229		466.751446		-17.910234		-0.351759		1.267397		1.876220		3.834012		26.366168		-1.011728		
0.313818		-0.000000		0.000000		0.000000		0.096796		0.000000		0.248473		0.000000		0.000000		-0.000000		0.000000		0.000000		-0.000000		-0.189952		0.000000		0.240771		0.000000		-0.000000		0.000000		-38.300497		514.355931		-7.859336		0.381301		1.273972		1.888988		2.477260		-33.268327		0.508344		67.045606		462.287235		-20.407747		-0.351784		1.267407		1.876247		3.799911		26.200830		-1.156643		
0.316747		-0.000000		0.000000		0.000000		0.096796		0.000000		0.248473		0.000000		0.000000		-0.000000		0.000000		0.000000		0.000000		-0.189952		0.000000		0.240771		0.000000		-0.000000		0.000000		-37.421997		510.186647		-11.772542		0.381280		1.274018		1.889058		2.427215		-33.091048		0.763580		66.242035		457.939058		-22.870007		-0.351809		1.267423		1.876276		3.765169		26.029064		-1.299924		
0.319677		0.000000		0.000000		0.000000		0.096796		0.000000		0.248473		0.000000		0.000000		-0.000000		0.000000		0.000000		0.000000		-0.189952		0.000000		0.240771		0.000000		-0.000000		0.000000		-36.523915		506.053817		-15.644472		0.381260		1.274073		1.889134		2.375410		-32.912293		1.017476		65.429222		453.717872		-25.334635		-0.351826		1.267446		1.876309		3.728248		25.853474		-1.443605		
